<svg xmlns="http://www.w3.org/2000/svg" viewBox="0 0 320 401">
  <defs>
    <style>
      .cls-1 {
        isolation: isolate;
      }

      .cls-2 {
        fill: none;
      }

      .cls-3 {
        mix-blend-mode: hard-light;
      }

      .cls-4 {
        fill: #fff;
      }

      .cls-5 {
        fill: #d0d2d3;
      }
    </style>
  </defs>
  <title>Mesh_320_b</title>
  <g class="cls-1">
    <g id="Слой_1" data-name="Слой 1">
      <rect class="cls-2" width="320" height="401"/>
      <g class="cls-3">
        <path class="cls-4" d="M60.849,226.71l55.5-94.412.118.247,44.9,94.444-.218.011Zm55.472-94.185L61.373,226l99.547.327Z" transform="translate(-1)"/>
        <path class="cls-4" d="M161.123,226.874l-.109-.228L116.09,132.163l.261.029,96.3,10.764-.137.2Zm-44.544-94.363,44.588,93.781,50.967-83.1Z" transform="translate(-1)"/>
        <path class="cls-4" d="M212.617,143.245l-.242-.027-96.447-10.78.325-.221,71.974-49.085.068.167Zm-95.875-11.01L212.164,142.9,188.093,83.575Z" transform="translate(-1)"/>
        <path class="cls-4" d="M116.278,132.551l-.074-.151L95.358,89.975l.215-.016,93.116-6.791ZM95.809,90.235l20.582,41.887,71.24-48.583Z" transform="translate(-1)"/>
        <path class="cls-4" d="M95.594,90.251l-.038-.289,63.32-12.123.027,0,30.406,5.572Zm63.283-12.115L98.067,89.778l88.944-6.487Z" transform="translate(-1)"/>
        <path class="cls-4" d="M259.663,146.266l-47.393-3.077-.034-.086L187.8,82.842Zm-47.191-3.356,46.36,3.011L188.52,83.865Z" transform="translate(-1)"/>
        <path class="cls-4" d="M259.579,146.73l-72.11-63.793L235.54,101.1l.026.049ZM188.851,83.77l69.729,61.687-23.245-44.122Z" transform="translate(-1)"/>
        <path class="cls-4" d="M259.179,146.274l-24.323-45.843,40.051,40.017ZM236.02,102.006l23.3,43.907,15.064-5.581Z" transform="translate(-1)"/>
        <path class="cls-4" d="M287.416,160.891l-28.528-14.82,15.816-5.859Zm-27.81-14.775,27.012,14.032-12.036-19.58Z" transform="translate(-1)"/>
        <path class="cls-4" d="M266.408,228.02l-.284-.02-105.242-1.373.143-.21L212.4,142.724l.118.189Zm-105-1.02,104.453,1.317-53.476-84.433Z" transform="translate(-1)"/>
        <path class="cls-4" d="M204.647,321.432l-.107-.236L160.911,227,266.4,228.408l-.141.209Zm-43.269-94.771L204.7,320.176,265.873,228Z" transform="translate(-1)"/>
        <path class="cls-4" d="M113.67,308.29l-.135-.207-52.684-81.07L61.1,227l100.289.4-.12.226Zm-52.3-81.725L113.644,307,160.9,227Z" transform="translate(-1)"/>
        <path class="cls-4" d="M53.589,310.648l.015-.167L61,225.847l.23.353,52.683,81.068-.25.014Zm7.631-83.934-7.312,83.625,59.491-3.332Z" transform="translate(-1)"/>
        <path class="cls-4" d="M135.372,360.163l-82.1-49.789.469-.027,60.013-3.361.039.1ZM54.226,310.612l80.546,48.847-21.21-52.169Z" transform="translate(-1)"/>
        <path class="cls-4" d="M136.177,360.31,90.122,345.824l-37.411-36.13ZM90.3,345.591l43.667,13.72L54.785,311.292Z" transform="translate(-1)"/>
        <path class="cls-4" d="M54.341,311.459,36.533,289.4,15.79,226.326l.27-.105ZM36.8,289.282l16.354,20.245L16.936,228.879Z" transform="translate(-1)"/>
        <path class="cls-4" d="M158.878,363.313l-.022,0-25.1-3.537,87.319-7.153.036.289Zm-22.49-3.464,22.487,3.17,58.766-9.825Z" transform="translate(-1)"/>
        <path class="cls-4" d="M135,360.02l-21.573-53.064.252.038,91.433,13.482-.367.209Zm-21.111-52.7L135.143,359.6l69.09-38.963Z" transform="translate(-1)"/>
        <path class="cls-4" d="M134.428,360.01l.572-.326,69.731-39.328.07.133,16.518,32.4-.22.018Zm70.186-39.252-68.9,38.854,85.139-6.973Z" transform="translate(-1)"/>
        <path class="cls-4" d="M221.049,353l-.091-.17-16.5-32.2.175-.049L275.158,300.8l-.413.4Zm-16.163-32.19,16.238,31.713,53-51.134Z" transform="translate(-1)"/>
        <path class="cls-4" d="M53.844,311.927,15.7,227H61.269l-.014.158ZM16.153,227l37.5,83.5,7.3-83.5Z" transform="translate(-1)"/>
        <path class="cls-4" d="M41.054,153.408l.312-.364,54.25-63.2.1.2,20.829,42.389Zm54.5-63.04L41.9,152.87l74.228-20.627Z" transform="translate(-1)"/>
        <path class="cls-4" d="M61.3,227H15.724l.068-.194,25.7-73.586Zm-45.167,0H60.921L41.459,154.5Z" transform="translate(-1)"/>
        <path class="cls-4" d="M16.065,226.329l-.278-.083,15.072-61.77.026-.028,10.961-11.927Zm15.058-61.711L16.782,223.4l24.325-69.642Z" transform="translate(-1)"/>
        <path class="cls-4" d="M30.448,165.352l7.967-16.783L95.48,90l.213.2L41.587,153.234Zm8.192-16.6-7.106,14.985,9.835-10.7,51.1-59.53Z" transform="translate(-1)"/>
        <path class="cls-4" d="M61.06,226.653l-.09-.335L41.3,153.037l.139-.038,75.205-20.9-.183.311ZM41.654,153.241l19.508,72.667,54.865-93.334Z" transform="translate(-1)"/>
        <path class="cls-4" d="M204.916,320.74l-.265-.039-91.218-13.449.1-.182,47.648-80.708.123.269Zm-91.034-13.716,90.547,13.35L161.158,227.02Z" transform="translate(-1)"/>
        <path class="cls-4" d="M204.33,320.8l.222-.327,61.68-92.585.047.385,8.524,72.931-.121.034ZM266.037,228.7l-61.022,91.616,69.469-19.32Z" transform="translate(-1)"/>
        <path class="cls-4" d="M274.567,301.677l-8.6-73.884,37.877,1.025.049.2ZM266.3,228.084l8.421,72.437,28.826-71.411Z" transform="translate(-1)"/>
        <path class="cls-4" d="M266.327,228.879l-.316-.51L212.118,142.91l47.264,3.046.01.126Zm-53.665-85.642,53.279,84.469-6.829-81.475Z" transform="translate(-1)"/>
        <path class="cls-4" d="M303.776,229.109,266,228.084l-6.954-82.671Zm-37.508-1.317,37.249,1.025-44.069-82.043Z" transform="translate(-1)"/>
        <path class="cls-4" d="M303.9,229.018l-.262.014L258.9,145.747l28.247,14.673.016.064ZM259.6,146.44l43.75,81.448-16.456-67.27Z" transform="translate(-1)"/>
      </g>
      <g>
        <g>
          <rect class="cls-5" x="43.174" y="130.61" width="83.519" height="0.291" transform="translate(-64.141 179.587) rotate(-75.245)"/>
          <polygon class="cls-5" points="73.405 171.258 73.229 171.027 187.309 83.169 187.485 83.4 73.405 171.258"/>
          <polygon class="cls-5" points="118.051 202.163 73.235 171.262 73.399 171.022 118.216 201.923 118.051 202.163"/>
          <rect class="cls-5" x="112.815" y="181.691" width="70.937" height="0.291" transform="translate(-78.019 116.327) rotate(-34.591)"/>
          <polygon class="cls-5" points="176.577 161.65 176.289 161.609 187.254 83.264 187.541 83.305 176.577 161.65"/>
          <polygon class="cls-5" points="176.338 161.74 94.455 90.477 94.646 90.257 176.528 161.52 176.338 161.74"/>
          <polygon class="cls-5" points="206.979 239.653 176.298 161.683 176.568 161.576 207.249 239.546 206.979 239.653"/>
          <polygon class="cls-5" points="207.058 239.734 118.077 202.177 118.19 201.909 207.17 239.466 207.058 239.734"/>
          <rect class="cls-5" x="84.325" y="232.118" width="61.046" height="0.291" transform="translate(-132.282 313.234) rotate(-81.899)"/>
          <rect class="cls-5" x="109.238" y="250.896" width="100.2" height="0.291" transform="translate(-54.059 42.96) rotate(-13.184)"/>
          <polygon class="cls-5" points="15.042 226.435 14.843 226.222 73.217 171.036 73.416 171.249 15.042 226.435"/>
          <polygon class="cls-5" points="109.427 262.538 73.182 171.196 73.452 171.089 109.697 262.43 109.427 262.538"/>
          <rect class="cls-5" x="212.378" y="133.266" width="0.292" height="71.777" transform="translate(1.57 341.488) rotate(-77.897)"/>
          <rect class="cls-5" x="190.718" y="207.994" width="74.292" height="0.291" transform="translate(-70.597 290.364) rotate(-57.862)"/>
          <polygon class="cls-5" points="246.492 176.757 187.275 83.363 187.52 83.206 246.737 176.601 246.492 176.757"/>
          <rect class="cls-5" x="237.11" y="161.235" width="32.786" height="0.291" transform="translate(10.677 339.783) rotate(-68.898)"/>
          <rect class="cls-5" x="275.5" y="164.513" width="0.291" height="76.752" transform="translate(-61.812 265.665) rotate(-46.924)"/>
          <polygon class="cls-5" points="207.129 239.745 207.098 239.455 302.662 228.953 302.692 229.243 207.129 239.745"/>
          <polygon class="cls-5" points="209.716 288.355 206.968 239.608 207.259 239.592 210.007 288.34 209.716 288.355"/>
          <rect class="cls-5" x="242.686" y="262.004" width="0.291" height="65.144" transform="translate(-93.743 476.597) rotate(-78.976)"/>
          <polygon class="cls-5" points="209.939 288.47 209.784 288.225 302.599 228.975 302.755 229.221 209.939 288.47"/>
          <polygon class="cls-5" points="219.967 352.644 209.718 288.371 210.005 288.324 220.254 352.596 219.967 352.644"/>
          <rect class="cls-5" x="120.753" y="324.033" width="104.357" height="0.291" transform="translate(-176.183 206.649) rotate(-43.267)"/>
          <rect class="cls-5" x="160.566" y="223.625" width="0.291" height="103.58" transform="translate(-147.109 362.266) rotate(-75.54)"/>
          <rect class="cls-5" x="74.697" y="291.275" width="59.211" height="0.29" transform="translate(-203.592 331.672) rotate(-77.779)"/>
          <rect class="cls-5" x="116.377" y="313.08" width="0.291" height="54.206" transform="translate(-201.655 170.77) rotate(-42.984)"/>
          <rect class="cls-5" x="80.771" y="332.917" width="26.62" height="0.291" transform="translate(-252.889 323.751) rotate(-72.685)"/>
          <polygon class="cls-5" points="97.01 320.498 52.825 310.475 52.891 310.192 97.076 320.214 97.01 320.498"/>
          <rect class="cls-5" x="95.817" y="304.206" width="117.271" height="0.291" transform="translate(-77.743 53.286) rotate(-15.734)"/>
          <polygon class="cls-5" points="96.933 320.451 49.406 264.83 49.627 264.64 97.154 320.261 96.933 320.451"/>
          <rect class="cls-5" x="50.495" y="263.463" width="60.088" height="0.292" transform="translate(-10.717 3.167) rotate(-2.125)"/>
          <rect class="cls-5" x="14.131" y="217.793" width="96.571" height="0.291" transform="translate(-165.185 224.621) rotate(-75.708)"/>
          <polygon class="cls-5" points="49.408 264.832 14.835 226.427 15.051 226.231 49.624 264.637 49.408 264.832"/>
          <polygon class="cls-5" points="35.73 289.453 35.471 289.321 49.387 264.669 49.646 264.801 35.73 289.453"/>
          <polygon class="cls-5" points="73.239 171.265 37.434 148.636 37.59 148.39 73.395 171.02 73.239 171.265"/>
          <polygon class="cls-5" points="133.556 124.679 133.3 124.542 157.875 77.839 158.132 77.975 133.556 124.679"/>
          <polygon class="cls-5" points="176.539 161.73 176.328 161.53 234.216 100.869 234.428 101.069 176.539 161.73"/>
        </g>
        <g>
          <circle class="cls-5" cx="118.216" cy="201.923" r="1.547"/>
          <circle class="cls-5" cx="73.236" cy="171.179" r="1.547"/>
          <circle class="cls-5" cx="109.526" cy="262.338" r="1.547"/>
          <circle class="cls-5" cx="49.406" cy="264.832" r="1.547"/>
          <circle class="cls-5" cx="97.076" cy="320.257" r="1.547"/>
          <circle class="cls-5" cx="209.833" cy="288.205" r="1.547"/>
          <circle class="cls-5" cx="206.968" cy="239.458" r="1.547"/>
          <circle class="cls-5" cx="176.528" cy="161.65" r="1.547"/>
          <circle class="cls-5" cx="246.479" cy="176.731" r="1.547"/>
          <circle class="cls-5" cx="133.945" cy="124.679" r="1.547"/>
        </g>
      </g>
      <g>
        <ellipse class="cls-4" cx="302.375" cy="229.032" rx="1.915" ry="1.92"/>
        <ellipse class="cls-4" cx="264.97" cy="227.792" rx="2.35" ry="2.356"/>
        <ellipse class="cls-4" cx="203.33" cy="320.853" rx="2.35" ry="2.356"/>
        <ellipse class="cls-4" cx="273.802" cy="300.48" rx="2.35" ry="2.356"/>
        <ellipse class="cls-4" cx="220.111" cy="353.003" rx="1.712" ry="1.717"/>
        <circle class="cls-4" cx="157.561" cy="363.313" r="1.303"/>
        <ellipse class="cls-4" cx="133.657" cy="360.01" rx="2.35" ry="2.356"/>
        <ellipse class="cls-4" cx="88.655" cy="345.862" rx="1.49" ry="1.494"/>
        <ellipse class="cls-4" cx="112.426" cy="307.424" rx="2.35" ry="2.356"/>
        <ellipse class="cls-4" cx="52.476" cy="310.648" rx="2.35" ry="2.356"/>
        <circle class="cls-4" cx="36.028" cy="289.772" r="1.421"/>
        <ellipse class="cls-4" cx="160.37" cy="226.426" rx="2.35" ry="2.356"/>
        <ellipse class="cls-4" cx="60.3" cy="226.712" rx="2.35" ry="2.356"/>
        <circle class="cls-4" cx="15.116" cy="226.221" r="1.407"/>
        <ellipse class="cls-4" cx="40.719" cy="153.408" rx="2.35" ry="2.356"/>
        <ellipse class="cls-4" cx="115.542" cy="132.551" rx="2.35" ry="2.356"/>
        <ellipse class="cls-4" cx="94.693" cy="90.424" rx="2.35" ry="2.356"/>
        <ellipse class="cls-4" cx="158.32" cy="77.577" rx="1.72" ry="1.725"/>
        <ellipse class="cls-4" cx="187.397" cy="83.865" rx="2.35" ry="2.356"/>
        <ellipse class="cls-4" cx="211.275" cy="142.808" rx="2.35" ry="2.356"/>
        <ellipse class="cls-4" cx="233.855" cy="100.431" rx="2.008" ry="2.013"/>
        <ellipse class="cls-4" cx="258.046" cy="146.266" rx="2.35" ry="2.356"/>
        <ellipse class="cls-4" cx="273.907" cy="140.452" rx="1.656" ry="1.661"/>
        <ellipse class="cls-4" cx="286.416" cy="160.459" rx="2.35" ry="2.356"/>
        <ellipse class="cls-4" cx="37.512" cy="148.116" rx="1.612" ry="1.616"/>
        <circle class="cls-4" cx="29.448" cy="164.817" r="1.423"/>
      </g>
      <polygon class="cls-4" points="224.238 41.598 188.123 82.579 188.537 82.989 224.652 42.008 224.238 41.598"/>
      <rect class="cls-4" x="224.155" y="41.351" width="26.392" height="0.827"/>
      <path class="cls-4" d="M257.539,41.8a3.318,3.318,0,1,0-3.317,3.326A3.322,3.322,0,0,0,257.539,41.8Zm-.8,0a2.519,2.519,0,1,1-2.519-2.525A2.522,2.522,0,0,1,256.74,41.8Z" transform="translate(-1)"/>
      <circle class="cls-4" cx="253.221" cy="41.803" r="1.376"/>
      <g>
        <path class="cls-4" d="M274.4,39.015a2.879,2.879,0,0,0-.748-.071h-.584v2.489h.584a1.549,1.549,0,0,0,1.082-.293,1.289,1.289,0,0,0,.3-.952,1.441,1.441,0,0,0-.2-.8A.83.83,0,0,0,274.4,39.015Z" transform="translate(-1)"/>
        <path class="cls-4" d="M291.763,38.768a.891.891,0,0,0-.823.619,5.916,5.916,0,0,0-.282,2.205,5.43,5.43,0,0,0,.308,2.266.909.909,0,0,0,.8.559.889.889,0,0,0,.832-.635,6.126,6.126,0,0,0,.274-2.19,6.035,6.035,0,0,0-.278-2.2A.892.892,0,0,0,291.763,38.768Z" transform="translate(-1)"/>
        <path class="cls-4" d="M292.294,35.38H268.769c-2.594,0-4.7,2.378-4.7,5.312V42.5c0,2.934,2.1,5.313,4.7,5.313h23.525c2.6,0,4.7-2.379,4.7-5.313v-1.81C296.991,37.758,294.889,35.38,292.294,35.38Zm-21.189,9.785h-4.125V38.03h4.078v.946h-2.9v2.038h2.274v.951h-2.274V44.2h2.946Zm4.874-3.742a1.72,1.72,0,0,1-.785.732,3.863,3.863,0,0,1-1.514.224h-.61v2.786h-1.178V38.03h1.762a4.828,4.828,0,0,1,1.372.16,1.622,1.622,0,0,1,.886.705,2.339,2.339,0,0,1,.36,1.315A2.385,2.385,0,0,1,275.979,41.423Zm4.972,3.241a2.4,2.4,0,0,1-1.775.632,2.3,2.3,0,0,1-2.44-2l1.053-.3a1.406,1.406,0,0,0,1.44,1.317,1.168,1.168,0,0,0,.863-.3.994.994,0,0,0,.295-.73.963.963,0,0,0-.2-.59,2.414,2.414,0,0,0-1.012-.58,8.536,8.536,0,0,1-1.232-.549,1.94,1.94,0,0,1-.91-1.662,1.928,1.928,0,0,1,.591-1.432,2.148,2.148,0,0,1,1.572-.58,2.116,2.116,0,0,1,2.216,1.724l-1.006.351a1.911,1.911,0,0,0-.467-.838,1.113,1.113,0,0,0-.791-.271.923.923,0,0,0-.716.276.9.9,0,0,0-.253.631.769.769,0,0,0,.284.627,4.538,4.538,0,0,0,1.134.558,6.289,6.289,0,0,1,1.116.528,1.9,1.9,0,0,1,.875,1.646A2.087,2.087,0,0,1,280.951,44.663Zm7.771.5h-3.545v-.878h1.236V39.4a4.281,4.281,0,0,1-1.267,1.008v-1.1a4.812,4.812,0,0,0,1.558-1.36h.86v6.335h1.157Zm4.769-.763a1.942,1.942,0,0,1-1.729.893q-2.321,0-2.32-3.611a5.371,5.371,0,0,1,.594-2.893,1.947,1.947,0,0,1,1.726-.891q2.32,0,2.321,3.612A5.4,5.4,0,0,1,293.491,44.4Z" transform="translate(-1)"/>
      </g>
    </g>
  </g>
</svg>
